# xmcd
#
# Track frame offsets:
#	3076
#	21407
#	46874
#	63795
#	94264
#	114412
#	137790
#	157410
#	173026
#	196727
#
# Disc length: 2853 seconds
# Revision: 1
# Processed by: cddbd v1.5.2PL0 Copyright (c) Steve Scherf et al.
# Submitted via: dBpowerAMP V12.0
#
DISCID=870afc0a
DTITLE=Mr Black and Blues Featuring Chris Wilson - Blow These Tracks (Live on the Blues Train)
DYEAR=2013
DGENRE=Blues
TTITLE0=Heartbeat
TTITLE1=Long Road Home
TTITLE2=Broken Heart Blues
TTITLE3=Hand it Over
TTITLE4=All My Days
TTITLE5=To Know God is to Love You
TTITLE6=Goin' Down Slow
TTITLE7=Muddy Water
TTITLE8=Gimme Some Lovin'
TTITLE9=Hear My Train a Comin' (Bonus)
EXTD=
EXTT0=
EXTT1=
EXTT2=
EXTT3=
EXTT4=
EXTT5=
EXTT6=
EXTT7=
EXTT8=
EXTT9=
PLAYORDER=
